<?xml version="1.0" encoding="UTF-8"?>
<!DOCTYPE svg PUBLIC "-//W3C//DTD SVG 1.1//EN" "http://www.w3.org/Graphics/SVG/1.1/DTD/svg11.dtd">
<svg xmlns="http://www.w3.org/2000/svg" version="1.1" width="2882px" height="2617px" style="shape-rendering:geometricPrecision; text-rendering:geometricPrecision; image-rendering:optimizeQuality; fill-rule:evenodd; clip-rule:evenodd" xmlns:xlink="http://www.w3.org/1999/xlink">
<g><path style="opacity:1" fill="#fefefe" d="M -0.5,-0.5 C 960.167,-0.5 1920.83,-0.5 2881.5,-0.5C 2881.5,871.833 2881.5,1744.17 2881.5,2616.5C 1920.83,2616.5 960.167,2616.5 -0.5,2616.5C -0.5,1744.17 -0.5,871.833 -0.5,-0.5 Z"/></g>
<g><path style="opacity:1" fill="#ce642b" d="M 571.5,881.5 C 574.379,885.295 576.213,889.629 577,894.5C 593.323,980.857 577.157,1060.52 528.5,1133.5C 519.978,1123.14 510.644,1113.64 500.5,1105C 521.508,1069.49 535.008,1031.32 541,990.5C 541.828,975.803 541.494,961.136 540,946.5C 539.301,942.035 538.134,937.702 536.5,933.5C 555.235,930.598 566.735,919.931 571,901.5C 571.5,894.842 571.666,888.175 571.5,881.5 Z"/></g>
<g><path style="opacity:1" fill="#ce642a" d="M 781.5,1220.5 C 782.167,1219.5 782.833,1218.5 783.5,1217.5C 792.415,1261.73 796.248,1306.39 795,1351.5C 795.383,1385.26 787.05,1416.59 770,1445.5C 747.161,1473.76 718.328,1482.26 683.5,1471C 649.62,1456.41 638.12,1431.58 649,1396.5C 653.889,1389.97 660.389,1386.47 668.5,1386C 663.953,1384.45 659.287,1384.12 654.5,1385C 638.505,1390.99 625.338,1400.82 615,1414.5C 594.216,1441.85 583.549,1472.85 583,1507.5C 581.661,1585.48 603.995,1655.81 650,1718.5C 651.919,1716.31 653.253,1713.98 654,1711.5C 609.189,1648.39 588.189,1578.06 591,1500.5C 592.861,1468.47 603.861,1440.14 624,1415.5C 628.033,1411.13 632.366,1407.13 637,1403.5C 633.359,1431.54 642.859,1453.87 665.5,1470.5C 642.179,1521.24 638.012,1573.57 653,1627.5C 657.959,1644.04 664.292,1660.04 672,1675.5C 672.973,1673.61 673.64,1671.61 674,1669.5C 675.84,1655.4 676.673,1641.23 676.5,1627C 676.308,1612.46 675.808,1597.96 675,1583.5C 681.366,1599.91 690.032,1614.91 701,1628.5C 726.173,1653.65 740.84,1683.98 745,1719.5C 755.418,1688.85 765.085,1657.85 774,1626.5C 839.513,1400.12 905.179,1173.78 971,947.5C 1055.43,946.169 1139.93,946.169 1224.5,947.5C 1129.54,1271.03 1035.21,1594.7 941.5,1918.5C 853.499,1918.67 765.499,1918.5 677.5,1918C 669.77,1913.11 662.77,1907.28 656.5,1900.5C 646.645,1889.15 636.979,1877.65 627.5,1866C 487.526,1750.29 402.026,1602.45 371,1422.5C 369.95,1414.5 369.284,1406.5 369,1398.5C 374.17,1415.85 383.17,1430.85 396,1443.5C 384.437,1413.47 374.437,1382.81 366,1351.5C 351.246,1290.44 347.913,1228.78 356,1166.5C 358.053,1153.73 360.553,1141.07 363.5,1128.5C 365.308,1128.49 366.975,1128.99 368.5,1130C 386.866,1141.7 401.033,1157.2 411,1176.5C 414.081,1183.16 415.748,1190.16 416,1197.5C 418.647,1186.82 417.647,1176.49 413,1166.5C 405.242,1155.99 397.242,1145.65 389,1135.5C 375.061,1115.63 363.728,1094.29 355,1071.5C 351.736,1060.04 350.736,1048.37 352,1036.5C 357.306,1005.86 362.473,975.19 367.5,944.5C 368.167,944.833 368.833,945.167 369.5,945.5C 375.289,966.711 380.789,988.044 386,1009.5C 390.779,1026.59 399.946,1040.76 413.5,1052C 450.438,1073.59 483.938,1099.75 514,1130.5C 518.333,1136.83 522.667,1143.17 527,1149.5C 563.271,1102.06 584.271,1048.39 590,988.5C 594.085,951.861 591.085,915.861 581,880.5C 572.693,860.93 558.193,853.43 537.5,858C 560.028,864.134 568.528,879.301 563,903.5C 555.063,923.376 540.896,929.543 520.5,922C 474.215,895.311 448.715,855.144 444,801.5C 443.333,791.167 443.333,780.833 444,770.5C 448.537,736.815 453.204,703.148 458,669.5C 458.982,652.162 459.649,634.828 460,617.5C 461.307,631.1 466.307,643.1 475,653.5C 487.953,668.487 503.12,680.32 520.5,689C 506.453,672.954 493.953,655.787 483,637.5C 452.106,582.966 456.106,531.299 495,482.5C 497.416,477.754 499.083,472.754 500,467.5C 500.461,459.331 500.961,451.164 501.5,443C 499.522,410.427 497.022,377.927 494,345.5C 503.024,376.878 515.357,406.878 531,435.5C 544.303,455.439 554.969,476.772 563,499.5C 569.725,524.364 572.392,549.697 571,575.5C 573.781,597.513 581.115,617.846 593,636.5C 609.494,659.486 625.494,682.819 641,706.5C 675.233,771.864 696.566,841.198 705,914.5C 706.199,956.24 700.199,996.906 687,1036.5C 667.366,1095.11 639.366,1149.11 603,1198.5C 589.385,1216.72 575.052,1234.38 560,1251.5C 557.889,1284.62 540.389,1300.45 507.5,1299C 489.803,1295.9 474.303,1288.4 461,1276.5C 460.667,1276.83 460.333,1277.17 460,1277.5C 455.483,1308.09 451.483,1338.76 448,1369.5C 443.761,1445.07 455.428,1518.07 483,1588.5C 514.243,1665.71 557.577,1735.04 613,1796.5C 613.51,1793.1 613.843,1789.77 614,1786.5C 550.092,1714.4 503.425,1632.06 474,1539.5C 456.593,1478.95 450.926,1417.28 457,1354.5C 459.816,1333.09 463.15,1311.75 467,1290.5C 486.931,1305 508.764,1310 532.5,1305.5C 485.768,1402.88 480.268,1502.55 516,1604.5C 539.067,1667.48 572.733,1723.81 617,1773.5C 620.17,1770.55 620.837,1767.21 619,1763.5C 559.744,1696.98 521.744,1619.65 505,1531.5C 491.696,1444.65 507.029,1363.31 551,1287.5C 556.933,1278.62 563.1,1269.95 569.5,1261.5C 571.642,1269.02 573.142,1276.68 574,1284.5C 574.037,1299.57 575.037,1314.57 577,1329.5C 577.212,1311.48 577.878,1293.48 579,1275.5C 579.565,1257.81 584.898,1241.81 595,1227.5C 632.874,1185.92 663.208,1139.25 686,1087.5C 709.555,1029.05 718.888,968.386 714,905.5C 744.416,977.744 764.416,1052.74 774,1130.5C 775.358,1154.96 774.358,1179.29 771,1203.5C 766.265,1224.3 757.265,1242.97 744,1259.5C 737.862,1270.05 735.195,1281.38 736,1293.5C 736.727,1272.53 746.56,1257.69 765.5,1249C 774.872,1241.75 780.206,1232.25 781.5,1220.5 Z"/></g>
<g><path style="opacity:1" fill="#e7b896" d="M 369.5,945.5 C 368.833,945.167 368.167,944.833 367.5,944.5C 368.961,939.213 369.628,939.547 369.5,945.5 Z"/></g>
<g><path style="opacity:1" fill="#d6cae0" d="M 1268.5,946.5 C 1489,945.167 1709.67,945.167 1930.5,946.5C 1930.38,947.107 1930.04,947.44 1929.5,947.5C 1709.33,946.5 1489,946.167 1268.5,946.5 Z"/></g>
<g><path style="opacity:1" fill="#5d358d" d="M 1268.5,946.5 C 1489,946.167 1709.33,946.5 1929.5,947.5C 1905.77,1027.7 1882.44,1108.03 1859.5,1188.5C 1668.83,1188.37 1478.17,1187.87 1287.5,1187C 1258.16,1186.83 1228.83,1186.33 1199.5,1185.5C 1222.35,1105.76 1245.35,1026.09 1268.5,946.5 Z"/></g>
<g><path style="opacity:1" fill="#5d358d" d="M 1973.5,946.5 C 2193.83,946.5 2414.17,946.5 2634.5,946.5C 2613.98,1017.9 2593.15,1089.24 2572,1160.5C 2565.03,1174.8 2553.87,1183.97 2538.5,1188C 2479.5,1188.5 2420.5,1188.67 2361.5,1188.5C 2290.83,1431.83 2220.17,1675.16 2149.5,1918.5C 2065.17,1918.5 1980.83,1918.5 1896.5,1918.5C 1967.79,1675.34 2038.79,1432.01 2109.5,1188.5C 2041.16,1187.67 1972.83,1186.67 1904.5,1185.5C 1927.88,1105.92 1950.88,1026.26 1973.5,946.5 Z"/></g>
<g><path style="opacity:1" fill="#e4b08b" d="M 783.5,1217.5 C 782.833,1218.5 782.167,1219.5 781.5,1220.5C 781.335,1217.48 781.502,1214.48 782,1211.5C 782.505,1213.52 783.005,1215.52 783.5,1217.5 Z"/></g>
<g><path style="opacity:1" fill="#5d358d" d="M 1314.5,1674.5 C 1313.96,1674.56 1313.62,1674.89 1313.5,1675.5C 1330.49,1676.5 1347.49,1676.83 1364.5,1676.5C 1482.17,1675.84 1599.5,1676.5 1716.5,1678.5C 1693.19,1758.4 1670.19,1838.4 1647.5,1918.5C 1428.17,1918.83 1208.83,1918.5 989.5,1917.5C 1047.34,1715.82 1105.34,1514.15 1163.5,1312.5C 1383.17,1311.17 1602.83,1311.17 1822.5,1312.5C 1798.69,1392.73 1775.36,1473.07 1752.5,1553.5C 1618.17,1553.5 1483.83,1553.5 1349.5,1553.5C 1337.64,1593.75 1325.97,1634.08 1314.5,1674.5 Z"/></g>
<g><path style="opacity:1" fill="#ac95c3" d="M 1314.5,1674.5 C 1330.99,1675.5 1347.66,1675.83 1364.5,1675.5C 1364.5,1675.83 1364.5,1676.17 1364.5,1676.5C 1347.49,1676.83 1330.49,1676.5 1313.5,1675.5C 1313.62,1674.89 1313.96,1674.56 1314.5,1674.5 Z"/></g>
<g><path style="opacity:1" fill="#8663a5" d="M 1364.5,1676.5 C 1364.5,1676.17 1364.5,1675.83 1364.5,1675.5C 1482.17,1675.5 1599.83,1675.5 1717.5,1675.5C 1717.74,1676.79 1717.4,1677.79 1716.5,1678.5C 1599.5,1676.5 1482.17,1675.84 1364.5,1676.5 Z"/></g>
</svg>
